<svg width="24" height="30" viewBox="0 0 24 30" fill="none" xmlns="http://www.w3.org/2000/svg">
<g clip-path="url(#clip0_2078_1663)">
<path d="M11.9812 14.4204C11.2455 16.5459 9.62852 17.5291 7.93356 18.4173C7.60806 18.5873 7.44145 18.8174 7.34322 19.1885C6.80873 21.2069 6.25305 23.2194 5.68101 25.2269C5.47877 25.937 5.57604 26.5062 6.11919 27.0293C6.84533 27.7275 6.92622 28.6167 6.65079 29.5619C6.54582 29.923 6.32143 30.076 5.95259 29.965C4.12377 29.4169 2.29591 28.8647 0.462276 28.3326C0.0327584 28.2076 -0.063546 27.9315 0.0337214 27.5414C0.267741 26.6022 0.786821 25.93 1.73446 25.707C2.34599 25.563 2.70231 25.1819 2.87181 24.5607C3.4506 22.4352 4.05154 20.3147 4.61877 18.1862C4.67463 17.9782 4.60625 17.6961 4.51284 17.4891C4.09295 16.5579 3.54883 15.6757 3.22428 14.7114C2.65224 13.016 2.91611 11.3586 3.77803 9.81429C4.4695 8.576 5.20526 7.36572 5.89384 6.12643C6.12401 5.71233 6.39655 5.63831 6.81066 5.76534C8.3756 6.24446 9.94344 6.71657 11.518 7.15967C11.8098 7.24169 12.1575 7.25469 12.4464 7.17267C14.0056 6.73357 15.558 6.26746 17.1037 5.78135C17.6035 5.62431 17.8972 5.73934 18.1592 6.22345C18.7957 7.39773 19.493 8.53599 20.1478 9.70026C21.3199 11.7827 21.3256 13.8802 20.2644 16.0257C19.9263 16.7099 19.2426 17.287 19.3793 18.1442C19.5045 18.9264 19.7761 19.6836 19.9861 20.4508C20.3366 21.7291 20.7122 23.0004 21.0338 24.2857C21.2293 25.0658 21.5953 25.555 22.4014 25.757C23.3346 25.9911 23.8064 26.7502 23.9856 27.7005C24.0491 28.0355 23.8729 28.2256 23.5638 28.3166C22.5487 28.6157 21.5356 28.9257 20.5215 29.2288C19.7068 29.4719 18.8891 29.7059 18.0763 29.954C17.667 30.079 17.4552 29.926 17.3232 29.5109C17.0074 28.5177 17.2163 27.6715 17.9328 26.9593C18.3826 26.5122 18.5222 26.0191 18.3412 25.3819C17.7364 23.2464 17.1643 21.1009 16.5644 18.9634C16.5172 18.7964 16.3689 18.6273 16.2234 18.5313C15.8604 18.2893 15.4771 18.0772 15.0919 17.8742C13.6983 17.139 12.639 16.0747 11.9803 14.4234L11.9812 14.4204ZM19.7183 11.0156C17.3714 11.8178 14.9956 12.0788 12.5571 11.9998C12.5427 12.928 12.7286 13.7392 13.0772 14.5174C13.8505 16.2448 15.4443 16.9209 16.9159 17.7551C16.9419 17.7701 16.9823 17.7811 17.0083 17.7711C17.6459 17.5191 18.4587 17.6321 18.7813 16.7389C18.9652 16.2308 19.2917 15.7797 19.5286 15.2896C20.1893 13.9242 20.2499 12.5239 19.7174 11.0146L19.7183 11.0156ZM11.4102 11.9928C8.93995 12.0858 6.58338 11.8098 4.26919 11.0346C3.99472 11.8368 3.85797 12.5869 3.92249 13.3841C4.01783 14.5734 4.61877 15.5396 5.11666 16.5629C5.40847 17.162 5.76672 17.5601 6.42544 17.6121C6.69894 17.6331 7.01964 17.7581 7.23728 17.6541C7.89023 17.343 8.5268 16.98 9.12581 16.5679C10.6686 15.5066 11.4352 14.0033 11.4102 11.9938V11.9928ZM11.4882 10.9816C11.4882 10.1014 11.5007 9.27016 11.4737 8.44097C11.4699 8.32494 11.2888 8.1519 11.1598 8.11189C9.77972 7.68879 8.38908 7.3027 7.0129 6.8666C6.7028 6.76858 6.58627 6.8596 6.45144 7.10966C6.17697 7.61778 5.88132 8.11289 5.59433 8.61201C5.31216 9.10312 5.02903 9.59524 4.72759 10.1194C6.94548 10.8575 9.14507 11.0776 11.4901 10.9806L11.4882 10.9816ZM12.5119 10.9866C14.8598 11.0686 17.0584 10.8575 19.2532 10.1024C18.6291 9.0151 18.0378 7.97386 17.4272 6.94662C17.3801 6.8676 17.1759 6.82759 17.068 6.8576C15.6504 7.26469 14.2348 7.68079 12.8258 8.11589C12.6987 8.1549 12.5292 8.34095 12.5254 8.46397C12.4984 9.29117 12.5119 10.1204 12.5119 10.9866ZM1.09018 27.4784C2.66764 27.9465 4.21429 28.4056 5.77539 28.8687C5.89191 28.3476 5.70701 27.9815 5.38343 27.6725C4.61396 26.9393 4.44446 26.0581 4.73337 25.0378C5.19371 23.4145 5.6396 21.7861 6.08837 20.1587C6.22224 19.6726 6.34165 19.1825 6.47263 18.6744C6.13941 18.5783 5.86687 18.4993 5.57604 18.4153C5.54233 18.5223 5.51633 18.5993 5.49514 18.6764C4.9125 20.7818 4.33564 22.8883 3.74433 24.9918C3.50068 25.858 2.95559 26.4132 2.09752 26.6282C1.66512 26.7362 1.28375 26.9313 1.09211 27.4774L1.09018 27.4784ZM17.5428 18.6754C17.5505 18.7884 17.5447 18.8554 17.5621 18.9164C18.1072 20.8959 18.6291 22.8833 19.2118 24.8508C19.5479 25.9851 19.3947 26.9233 18.5453 27.7595C18.2998 28.0015 18.2179 28.4216 18.06 28.7607C18.1081 28.7977 18.1563 28.8347 18.2044 28.8717C19.7617 28.4086 21.3179 27.9465 22.8916 27.4784C22.7124 26.9183 22.3118 26.7342 21.864 26.6192C21.0252 26.4052 20.4907 25.852 20.2499 25.0078C19.8503 23.6065 19.4785 22.1972 19.0895 20.7918C18.8708 20.0007 18.6426 19.2115 18.4144 18.4103C18.0975 18.5053 17.8394 18.5833 17.5409 18.6734L17.5428 18.6754Z" fill="#104E80"/>
<path d="M11.9851 1.35132C12.2634 0.991235 12.4175 0.728174 12.6284 0.530127C13.395 -0.193041 14.513 -0.169036 15.2401 0.562135C15.9759 1.30131 16.0414 2.51759 15.3201 3.30978C14.3619 4.36302 13.3555 5.36926 12.3693 6.3945C12.0843 6.69157 11.8156 6.65656 11.5382 6.36649C10.5896 5.37226 9.62272 4.39703 8.68567 3.3908C7.90946 2.5566 7.9268 1.34232 8.68856 0.569137C9.43974 -0.193041 10.5723 -0.192041 11.3726 0.587141C11.5584 0.768183 11.7019 0.995236 11.9831 1.35032L11.9851 1.35132ZM11.9754 5.40026C12.8576 4.48005 13.6993 3.61485 14.5256 2.73464C14.9609 2.27153 14.9666 1.66539 14.5708 1.2723C14.1827 0.888211 13.6367 0.911216 13.1985 1.34232C12.9086 1.62838 12.6303 1.92745 12.3443 2.21752C12.0929 2.47258 11.8406 2.47158 11.5902 2.21252C11.284 1.89645 10.9873 1.56737 10.6647 1.2703C10.2612 0.899214 9.72383 0.921219 9.36462 1.29331C9.0054 1.66439 8.96688 2.24353 9.33573 2.64162C10.189 3.56184 11.0682 4.45504 11.9764 5.40026H11.9754Z" fill="#104E80"/>
<path d="M5.29866 4.98317C5.14457 4.88614 5.02323 4.83813 4.93848 4.75111C4.67942 4.48205 4.39051 4.22599 4.20271 3.90891C4.11315 3.75688 4.1536 3.4138 4.26724 3.27377C4.35488 3.16574 4.71698 3.14974 4.83929 3.24876C5.16191 3.51082 5.44119 3.8409 5.69158 4.17998C5.77151 4.288 5.75996 4.53806 5.69447 4.67309C5.62898 4.80712 5.44311 4.87714 5.29866 4.98317Z" fill="#104E80"/>
<path d="M4.1074 6.4205C3.99665 6.4355 3.85604 6.50151 3.77996 6.4545C3.59409 6.34148 3.34755 6.20245 3.30037 6.0234C3.26473 5.88837 3.4689 5.5633 3.61913 5.52029C4.01494 5.40826 4.44061 5.35925 4.8499 5.38025C5.00591 5.38826 5.23416 5.63831 5.26979 5.81435C5.29772 5.94739 5.10607 6.21545 4.95391 6.28346C4.69774 6.39749 4.39535 6.39949 4.11317 6.4485C4.11125 6.4385 4.11028 6.4295 4.10836 6.4195L4.1074 6.4205Z" fill="#104E80"/>
<path d="M19.8474 3.57784C19.7665 3.75388 19.7337 3.88891 19.6548 3.98293C19.4227 4.25899 19.2021 4.56207 18.918 4.76611C18.7668 4.87514 18.4144 4.89114 18.2969 4.78212C18.1774 4.67209 18.1418 4.29 18.2352 4.14097C18.4519 3.79889 18.7524 3.50482 19.0557 3.23676C19.1588 3.14673 19.3967 3.13573 19.5305 3.19375C19.6634 3.25176 19.7424 3.4418 19.8464 3.57684L19.8474 3.57784Z" fill="#104E80"/>
<path d="M19.4959 5.38326C19.7492 5.41927 20.0313 5.39526 20.2451 5.50929C20.4156 5.60031 20.5976 5.86337 20.5938 6.04641C20.5909 6.18845 20.3193 6.4265 20.1508 6.44251C19.8079 6.47551 19.4525 6.4015 19.1059 6.34748C18.7823 6.29747 18.554 6.12143 18.6282 5.74234C18.6956 5.39626 18.9518 5.32424 19.2551 5.37226C19.3341 5.38426 19.414 5.39226 19.493 5.40226C19.493 5.39526 19.4949 5.38826 19.4959 5.38226V5.38326Z" fill="#104E80"/>
<path d="M6.28772 4.51406C6.46877 4.04195 6.58819 3.62285 6.79235 3.25476C6.86073 3.13273 7.18046 3.05372 7.32299 3.11373C7.46456 3.17374 7.6302 3.45481 7.60324 3.60284C7.53293 3.98893 7.39715 4.37502 7.21417 4.7181C7.1429 4.85214 6.85688 4.95316 6.69701 4.91915C6.54389 4.88714 6.42736 4.66209 6.28772 4.51406Z" fill="#104E80"/>
<path d="M17.6006 4.50705C17.4802 4.64309 17.3675 4.88314 17.2202 4.90815C17.0449 4.93815 16.7502 4.83913 16.6684 4.6961C16.4844 4.37402 16.3602 3.99793 16.2957 3.62885C16.2687 3.47281 16.418 3.16974 16.547 3.12673C16.7127 3.07172 17.042 3.14574 17.1191 3.27777C17.3213 3.62685 17.4263 4.03794 17.6006 4.50805V4.50705Z" fill="#104E80"/>
<path d="M19.1963 13.4201C19.0933 13.7822 19.049 14.1613 18.8766 14.4594C18.7812 14.6244 18.4711 14.6554 18.2583 14.7464C18.1774 14.5244 17.9819 14.2643 18.0368 14.0883C18.1813 13.6202 18.1764 13.2011 18.0358 12.736C17.9848 12.5679 18.1437 12.1668 18.2544 12.1458C18.4509 12.1088 18.786 12.2169 18.8804 12.3789C19.0538 12.676 19.0952 13.056 19.1963 13.4201Z" fill="#104E80"/>
<path d="M17.432 16.5199C17.3059 16.3328 17.1056 16.1588 17.0709 15.9547C17.0093 15.5966 17.5226 14.8975 17.7778 14.9715C17.9761 15.0295 18.215 15.2526 18.2708 15.4516C18.3575 15.7607 17.8134 16.4228 17.432 16.5189V16.5199Z" fill="#104E80"/>
<path d="M10.0581 13.4181C9.98006 14.3563 9.68537 15.0085 9.02183 15.3946C8.86293 15.4866 8.50757 15.4206 8.36407 15.2866C8.14546 15.0835 8.23406 14.7784 8.47675 14.6044C8.86389 14.3263 9.04494 13.9553 9.08732 13.4761C9.11428 13.1711 9.32134 12.952 9.60736 13.032C9.80479 13.087 9.95502 13.3241 10.0581 13.4181Z" fill="#104E80"/>
<path d="M8.10888 15.5726C8.1137 16.1128 7.27874 16.6629 6.95516 16.4308C6.81166 16.3288 6.67395 15.9207 6.71536 15.8857C7.02064 15.6306 7.35771 15.3996 7.71789 15.2456C7.80456 15.2085 8.01739 15.4916 8.10888 15.5726Z" fill="#104E80"/>
</g>
<defs>
<clipPath id="clip0_2078_1663">
<rect width="24" height="30" fill="white"/>
</clipPath>
</defs>
</svg>
