<svg width="16" height="16" viewBox="0 0 16 16" fill="none" xmlns="http://www.w3.org/2000/svg">
<g clip-path="url(#clip0_2078_1409)">
<path d="M7.75652 13.0351C7.22352 13.6579 6.72176 13.4188 6.16314 13.0461C4.30233 11.8043 2.58836 10.4018 1.31303 8.49635C0.489475 7.26557 -0.0322782 5.92268 0.00208871 4.39377C0.0458285 2.43063 1.37614 0.795431 3.23133 0.543314C4.70599 0.342398 5.88571 0.968478 6.78925 2.17527C6.85236 2.25953 6.90735 2.35026 6.98545 2.46692C7.05106 2.37943 7.10792 2.30943 7.15916 2.23555C8.14581 0.804505 9.85478 0.167406 11.3588 0.669697C12.9341 1.19532 14.0026 2.73395 13.9832 4.51173C13.9769 5.08661 13.8713 5.66019 13.8157 6.18711C14.2119 6.42173 14.6749 6.6019 15.0204 6.91883C16.0402 7.85536 16.182 9.05567 15.8178 10.3532C15.4497 11.6611 14.6668 12.6994 13.6939 13.5646C12.9553 14.2218 12.1286 14.7721 11.3419 15.3709C11.1132 15.5453 10.9058 15.5355 10.6558 15.38C9.61671 14.7319 8.65319 13.9859 7.75652 13.0345V13.0351ZM10.9858 7.50149C11.6912 6.68033 11.8924 6.55589 12.8897 6.25127C12.9815 6.2234 13.0946 6.09248 13.1078 5.99592C13.189 5.40159 13.3208 4.79949 13.294 4.20711C13.2252 2.69571 12.1586 1.4928 10.7464 1.23097C9.463 0.992458 8.00709 1.82788 7.42722 3.1293C7.33225 3.34253 7.31225 3.65168 6.9917 3.64585C6.67552 3.64001 6.65865 3.33216 6.56243 3.11893C5.9357 1.73585 4.46854 0.968478 3.02076 1.27244C1.73231 1.54271 0.703174 2.92125 0.670682 4.40998C0.63819 5.90777 1.21056 7.18197 2.04411 8.34793C3.32943 10.1465 5.00654 11.4822 6.82986 12.6411C7.05106 12.7817 7.16291 12.6359 7.31038 12.5186C7.18228 12.3377 7.05793 12.1776 6.94859 12.0072C6.26874 10.9462 5.83322 9.82174 6.05942 8.50866C6.29624 7.13336 7.56282 6.11193 8.90438 6.23896C9.77542 6.32127 10.4496 6.76653 10.9858 7.50214V7.50149ZM15.321 9.37584C15.3341 8.14183 14.6755 7.18521 13.7939 6.98105C12.7703 6.74449 11.8206 7.26493 11.3501 8.29349C11.2857 8.43413 11.1076 8.60847 10.9858 8.60588C10.8652 8.60264 10.7027 8.41793 10.6377 8.27469C10.1878 7.27724 9.22368 6.75356 8.20954 6.97976C7.32725 7.17678 6.68615 8.0984 6.67552 9.15743C6.66678 9.98896 6.94421 10.7226 7.37036 11.4012C8.2539 12.8076 9.49424 13.8141 10.8545 14.6774C10.9277 14.7241 11.0782 14.7163 11.1545 14.6684C12.2723 13.9645 13.2996 13.1433 14.1363 12.0902C14.8036 11.2495 15.291 10.326 15.3216 9.37714L15.321 9.37584Z" fill="#104E80"/>
</g>
<defs>
<clipPath id="clip0_2078_1409">
<rect width="16" height="15" fill="white" transform="translate(0 0.5)"/>
</clipPath>
</defs>
</svg>
