<svg width="16" height="16" viewBox="0 0 16 16" fill="none" xmlns="http://www.w3.org/2000/svg">
<g clip-path="url(#clip0_2078_1588)">
<path d="M13.4704 15.5166C13.368 15.3757 13.259 15.2722 13.2116 15.1458C13.1754 15.0498 13.1764 14.8908 13.2355 14.8219C13.3374 14.7024 13.4821 14.7439 13.582 14.8678C13.6661 14.9723 13.768 15.0713 13.82 15.1907C13.9555 15.5021 14.1899 15.5816 14.5094 15.5431C14.6852 15.5221 14.8656 15.5396 15.044 15.5401C15.1968 15.5401 15.287 15.6121 15.2876 15.7651C15.2876 15.918 15.1938 15.989 15.045 15.9965C14.9772 16 14.9089 15.998 14.8412 15.998C10.3829 15.998 5.9242 15.998 1.46596 15.9975C1.27589 15.9975 1.0257 16.041 1.0262 15.7596C1.0262 15.4867 1.27182 15.5426 1.45119 15.5401C1.72686 15.5361 2.00305 15.5391 2.27873 15.5391C2.2879 15.5151 2.29758 15.4912 2.30676 15.4677C2.25987 15.4212 2.21707 15.3687 2.16509 15.3282C1.04761 14.461 0.355101 13.3423 0.0921623 11.9693C-0.0724289 11.11 -0.0133187 10.2633 0.243505 9.42855C0.358668 9.05466 0.636893 8.86372 1.07156 8.86272C2.20127 8.85972 3.33048 8.86172 4.4602 8.86172C4.93563 8.86172 5.41157 8.85872 5.887 8.86272C6.34051 8.86672 6.59785 9.05216 6.72626 9.48153C6.99684 10.3862 7.01468 11.3005 6.81034 12.2202C6.79301 12.2991 6.77875 12.3786 6.75734 12.4846C6.99378 12.4511 7.20016 12.4221 7.44424 12.3881C7.44424 12.2981 7.44424 12.2097 7.44424 12.1217C7.44424 10.8891 7.44424 9.65597 7.44424 8.42336C7.44424 8.34838 7.42029 8.25791 7.45444 8.20243C7.50488 8.12045 7.59457 8.01349 7.67253 8.00949C7.74897 8.00549 7.85649 8.10296 7.90337 8.18244C7.94464 8.25341 7.92528 8.36038 7.92579 8.45185C7.92681 9.64298 7.9263 10.8341 7.9263 12.0257C7.9263 12.1247 7.9263 12.2232 7.9263 12.3401H8.37931V4.95794H7.9263C7.9263 5.29184 7.9263 5.61424 7.9263 5.93664C7.9263 6.32002 7.92885 6.7029 7.92324 7.08628C7.9212 7.23223 7.8626 7.35519 7.68935 7.35669C7.50386 7.35819 7.44424 7.23723 7.44475 7.07428C7.44475 7.03279 7.44475 6.99081 7.44475 6.94932C7.44475 4.775 7.44475 2.60118 7.44475 0.426859C7.44475 0.0439786 7.48807 0.00249154 7.88655 0.00249154C9.66139 0.00249154 11.4362 0.00449091 13.2111 0.000492165C13.4674 -7.67905e-06 13.6941 0.0474775 13.8016 0.297399C13.9076 0.543822 13.8027 0.741261 13.6187 0.923204C13.1117 1.42505 12.6149 1.93689 12.0982 2.46122C12.1613 2.5312 12.2128 2.59318 12.2694 2.65066C12.7239 3.11152 13.1769 3.57387 13.636 4.03023C13.8134 4.20618 13.902 4.40162 13.8016 4.63754C13.6992 4.87747 13.4821 4.94095 13.237 4.94095C11.8953 4.94095 10.5536 4.94095 9.21194 4.94095C9.11105 4.94095 9.00964 4.94095 8.89041 4.94095V12.3821C9.11411 12.4196 9.33628 12.4706 9.561 12.4861C9.63336 12.4911 9.74343 12.4206 9.78419 12.3541C10.1022 11.8333 10.3962 11.2985 10.7249 10.7841C10.814 10.6442 10.9893 10.5517 11.1371 10.4547C11.3068 10.3433 11.4897 10.2508 11.718 10.1208C11.4836 9.98587 11.316 9.8939 11.1539 9.79443C10.9027 9.64048 10.8426 9.43154 10.9791 9.17512C11.0734 8.99868 11.1753 8.82523 11.2833 8.65629C11.4418 8.40786 11.6497 8.35138 11.9142 8.48634C12.1094 8.58581 12.2969 8.69927 12.5236 8.82673C12.8696 8.24142 13.2111 7.6636 13.5514 7.08778C13.0434 6.55544 13.3807 5.92164 13.8118 5.75969C14.0462 5.67172 14.2597 5.70671 14.4692 5.82617C14.8503 6.0436 15.234 6.25654 15.6132 6.47697C15.9393 6.66691 16.0646 6.96632 15.9688 7.30271C15.8603 7.68309 15.5714 7.92701 15.1974 7.89453C14.9884 7.87603 14.9013 7.94851 14.8096 8.11146C14.5278 8.6128 14.2292 9.10515 13.927 9.61899C14.1278 9.73495 14.3092 9.83842 14.4891 9.94488C14.7877 10.1218 14.8458 10.3183 14.6837 10.6127C14.591 10.7806 14.4962 10.9486 14.3922 11.11C14.2317 11.3594 14.0274 11.4109 13.7609 11.273C13.5912 11.185 13.4266 11.0875 13.1871 10.9536C13.1871 11.214 13.1958 11.4129 13.1846 11.6114C13.1754 11.7778 13.1871 11.9663 13.1127 12.1052C12.8411 12.6116 12.5369 13.1009 12.2408 13.6042C12.3932 13.7267 12.5272 13.8402 12.6679 13.9446C12.8075 14.0486 12.8885 14.1821 12.7693 14.3255C12.6505 14.469 12.4997 14.4185 12.3667 14.308C11.7511 13.7962 11.0576 13.4193 10.2933 13.1699C9.12379 12.789 7.93343 12.737 6.72932 12.9819C6.65594 12.9969 6.55504 13.0439 6.52957 13.1019C6.10815 14.0761 5.45131 14.8638 4.53511 15.5166H13.4709H13.4704ZM7.94362 4.43711H13.3685C12.8365 3.89877 12.3346 3.39193 11.8337 2.88359C11.5335 2.57869 11.5351 2.35426 11.8393 2.04585C12.2821 1.59749 12.727 1.15013 13.1698 0.701773C13.2304 0.640292 13.287 0.575312 13.3762 0.478843H7.94362V4.43711ZM3.46501 9.34007C2.67517 9.34007 1.88585 9.34607 1.09602 9.33657C0.847346 9.33358 0.723011 9.43904 0.66441 9.66497C0.479945 10.3752 0.428988 11.0905 0.5574 11.8158C0.846836 13.4498 1.75744 14.6429 3.22551 15.4442C3.39826 15.5386 3.55062 15.5351 3.72642 15.4472C5.84012 14.3895 6.93875 11.9013 6.28497 9.66847C6.2121 9.41905 6.08267 9.33457 5.834 9.33707C5.04468 9.34457 4.25484 9.33957 3.46501 9.34007ZM14.2776 10.3658C13.4062 9.87291 12.5537 9.39056 11.6905 8.90221C11.5871 9.08015 11.5009 9.22861 11.4046 9.39506C12.2755 9.8879 13.127 10.3698 13.9876 10.8571C14.089 10.6857 14.1731 10.5432 14.2781 10.3663L14.2776 10.3658ZM12.1435 10.3613C11.8897 10.5367 11.6681 10.6837 11.4551 10.8426C11.4077 10.8781 11.3567 10.9636 11.3684 11.0121C11.4428 11.324 11.5346 11.6324 11.6237 11.9528C11.9957 11.8538 12.3417 11.7623 12.6903 11.6698C12.6903 11.5079 12.6434 11.3459 12.6984 11.2305C12.9379 10.7261 12.5817 10.5717 12.2306 10.4037C12.1929 10.3857 12.1557 10.3668 12.1445 10.3613H12.1435ZM12.9481 9.06966C13.1438 9.17912 13.317 9.27659 13.5097 9.38456C13.8577 8.79274 14.1935 8.22142 14.5385 7.63461C14.3382 7.52264 14.1599 7.42217 13.9698 7.31571C13.6539 7.85104 13.3532 8.36038 13.0536 8.86972C13.0205 8.9262 12.9919 8.98618 12.9481 9.06916V9.06966ZM15.5133 7.05229C15.4842 7.0183 15.4369 6.92583 15.3604 6.88034C14.992 6.66091 14.6175 6.45198 14.2419 6.24404C14.0656 6.14607 13.9158 6.17956 13.8149 6.3595C13.7191 6.53145 13.7731 6.65891 13.9408 6.75288C14.3148 6.96282 14.6858 7.17825 15.0613 7.38468C15.2758 7.50265 15.5128 7.35619 15.5123 7.05179L15.5133 7.05229ZM10.1801 12.6335C10.4018 12.709 10.6056 12.778 10.8426 12.8585C10.9562 12.6046 11.131 12.3716 11.1509 12.1267C11.1702 11.8868 11.0321 11.6349 10.9475 11.3315C10.6703 11.8018 10.4298 12.2102 10.1801 12.634V12.6335ZM11.8352 13.3503C12.0584 12.9694 12.2663 12.614 12.4859 12.2392C11.9249 12.3091 11.426 12.4121 11.2925 13.0559C11.4495 13.1414 11.6314 13.2404 11.8347 13.3508L11.8352 13.3503Z" fill="#104E80"/>
<path d="M4.72424 13.4959C4.49901 13.2944 4.3334 13.14 4.15913 12.9955C4.11785 12.961 4.03479 12.932 3.99148 12.9495C3.49363 13.1495 3.03654 13.1055 2.66506 12.7071C2.30225 12.3177 2.30072 11.8704 2.52289 11.4355C2.17893 11.0946 1.84669 10.7657 1.45382 10.3763C1.45382 10.7382 1.44057 11.0461 1.45891 11.3525C1.46961 11.5365 1.47369 11.7094 1.24999 11.7334C1.03546 11.7564 0.980935 11.5865 0.983483 11.417C0.989088 11.0266 0.990617 10.6348 1.02629 10.2464C1.05584 9.92698 1.22706 9.80002 1.55573 9.80002C2.82864 9.79852 4.10205 9.79902 5.37496 9.80002C5.74032 9.80002 5.86619 9.91048 5.92682 10.2739C6.22849 12.0798 5.40095 13.8797 3.83453 14.8474C3.58994 14.9984 3.37897 15.0104 3.13183 14.8519C2.31346 14.3276 1.69994 13.6393 1.31878 12.7531C1.25305 12.5996 1.21789 12.4497 1.39776 12.3687C1.58936 12.2827 1.69077 12.4052 1.7616 12.5712C2.08874 13.3364 2.60952 13.9442 3.31324 14.4061C3.43808 14.4881 3.53337 14.4986 3.64854 14.4001C3.99046 14.1082 4.33697 13.8213 4.72475 13.4964L4.72424 13.4959ZM2.156 10.2929C2.14581 10.3139 2.13511 10.3349 2.12492 10.3558C2.33282 10.5513 2.54735 10.7412 2.7466 10.9447C2.84647 11.0466 2.92546 11.0471 3.05591 10.9956C3.7637 10.7172 4.53519 11.1791 4.56882 11.9119C4.57901 12.1283 4.50054 12.3482 4.45875 12.5916C4.59226 12.7261 4.75532 12.8901 4.93571 13.0715C5.4356 12.2313 5.59306 11.3515 5.47229 10.4153C5.45089 10.2509 5.33521 10.2759 5.2282 10.2759C4.26868 10.2754 3.30865 10.2754 2.34913 10.2759C2.28493 10.2759 2.22072 10.2869 2.15651 10.2924L2.156 10.2929ZM4.09186 11.9828C4.08982 11.6474 3.82383 11.384 3.48343 11.3805C3.13336 11.377 2.85513 11.6489 2.85768 11.9928C2.86023 12.3212 3.13438 12.5936 3.46815 12.5991C3.81211 12.6046 4.0939 12.3262 4.09186 11.9828Z" fill="#104E80"/>
</g>
<defs>
<clipPath id="clip0_2078_1588">
<rect width="16" height="16" fill="white"/>
</clipPath>
</defs>
</svg>
