<svg width="16" height="20" viewBox="0 0 16 20" fill="none" xmlns="http://www.w3.org/2000/svg">
<g clip-path="url(#clip0_2078_1419)">
<path d="M9.269 18.9509C9.85902 18.9509 10.4297 18.9529 11.0003 18.9503C11.2103 18.949 11.4272 18.9581 11.431 19.2168C11.4347 19.471 11.2266 19.5005 11.0116 19.4998C7.83519 19.4992 4.6582 19.5005 1.48182 19.4979C0.908049 19.4979 0.608663 19.209 0.603038 18.643C0.593662 17.7329 0.599912 16.8229 0.599912 15.9128C0.599912 13.6968 0.598662 11.4808 0.601788 9.26478C0.601788 9.07043 0.598662 8.91941 0.362403 8.81435C0.102393 8.69814 -0.00136097 8.45126 -0.00011092 8.16957C0.00363923 7.29892 -0.00323604 6.42827 0.00363923 5.55762C0.00738937 5.09866 0.319277 4.79925 0.804295 4.78546C1.18744 4.7743 1.5712 4.78349 1.99559 4.78349C1.99559 4.3764 1.99372 3.99426 1.99559 3.61147C2.00059 2.83734 2.34998 2.39807 3.11939 2.17023C3.22626 2.13871 3.33752 2.06189 3.40315 1.97588C3.67191 1.62394 3.92004 1.25822 4.18255 0.901682C4.56944 0.375747 5.12946 0.363928 5.53886 0.878701C6.097 1.58126 6.63952 2.29433 7.20517 2.99098C7.28392 3.08816 7.44705 3.15185 7.58206 3.1768C8.32334 3.31271 8.84523 3.06846 9.234 2.42302C9.56776 1.86951 10.0253 1.38297 10.4334 0.870166C10.8316 0.369837 11.3897 0.377717 11.7697 0.886581C11.9204 1.08816 12.0666 1.29236 12.2091 1.49919C12.4516 1.85112 12.6873 2.15776 13.1685 2.30877C13.7579 2.49328 13.9736 3.01593 13.9848 3.59308C13.9923 3.97653 13.9861 4.36065 13.9861 4.78284C14.3636 4.78284 14.7142 4.78087 15.0642 4.78284C15.678 4.78743 15.983 5.07568 15.9899 5.65808C15.9918 5.84587 16.0186 6.04154 15.9724 6.21882C15.9449 6.32388 15.7986 6.46767 15.7011 6.47095C15.6067 6.47424 15.4511 6.33372 15.4217 6.2313C15.3717 6.05533 15.3886 5.85835 15.398 5.67187C15.4099 5.42893 15.2974 5.33372 15.0467 5.33569C14.3805 5.3416 13.7135 5.33766 13.0473 5.33766C11.9016 5.33766 10.7559 5.33766 9.61026 5.33766C9.49838 5.33766 9.38651 5.33766 9.26338 5.33766V8.3764C9.37963 8.38166 9.48088 8.39019 9.58214 8.39019C11.3735 8.39085 13.1648 8.39085 14.9561 8.39019C15.3742 8.39019 15.3899 8.37115 15.3967 7.96997C15.3999 7.79269 15.3892 7.60884 15.4399 7.44272C15.4642 7.36196 15.613 7.272 15.7099 7.26741C15.7918 7.26281 15.9536 7.37443 15.9543 7.4355C15.9586 7.79663 15.9443 8.15973 15.8949 8.51757C15.8805 8.62328 15.753 8.75854 15.643 8.80122C15.388 8.89971 15.3711 9.06715 15.3717 9.29105C15.3786 12.3777 15.3761 15.4644 15.3761 18.5511C15.3761 19.2372 15.0999 19.5005 14.3805 19.5012C13.8073 19.5012 13.2348 19.5005 12.6616 19.5012C12.4485 19.5012 12.2397 19.4782 12.2391 19.2208C12.2391 18.9562 12.4554 18.9509 12.6641 18.9516C13.2579 18.9536 13.8517 18.9483 14.4448 18.9536C14.6923 18.9555 14.808 18.859 14.808 18.6187C14.8055 15.4434 14.8061 12.2674 14.8048 9.0921C14.8048 9.05467 14.7911 9.0179 14.7811 8.96537H9.26775V18.9522L9.269 18.9509ZM6.71703 18.9509V8.96734H1.18619C1.18619 9.08487 1.18619 9.18205 1.18619 9.27988C1.18619 12.3666 1.18619 15.4532 1.18619 18.5399C1.18619 18.9233 1.21619 18.9509 1.6412 18.9516C3.22439 18.9522 4.80758 18.9516 6.39076 18.9516C6.49264 18.9516 6.59452 18.9516 6.71703 18.9516V18.9509ZM6.72703 5.37115C6.6664 5.35539 6.63702 5.34095 6.60702 5.34095C4.70132 5.33898 2.795 5.33832 0.889299 5.33701C0.648664 5.33701 0.564286 5.45913 0.566161 5.67713C0.571786 6.43878 0.567411 7.20043 0.568661 7.96209C0.568661 8.35605 0.603038 8.38888 1.01118 8.38888C2.81312 8.38888 4.61507 8.38888 6.41639 8.38888C6.51639 8.38888 6.6164 8.37903 6.72703 8.37246V5.37049V5.37115ZM8.64023 18.9365V8.96669H7.34955V18.9371H8.64023V18.9365ZM6.01575 3.77496C5.26947 3.446 4.50506 3.09013 3.72378 2.77168C3.20564 2.56025 2.64937 2.86557 2.58937 3.40398C2.53936 3.85047 2.57936 4.30549 2.57936 4.75986H6.01637V3.77496H6.01575ZM13.3792 4.76774C13.3792 4.33766 13.3835 3.94305 13.3779 3.54909C13.3692 2.90103 12.8016 2.5353 12.181 2.794C11.4785 3.08684 10.7872 3.40201 10.0934 3.71324C10.0284 3.74279 9.9384 3.80976 9.9359 3.86229C9.9209 4.16367 9.9284 4.4657 9.9284 4.76708H13.3785L13.3792 4.76774ZM8.63648 8.38954V5.35933H7.34268V8.37378C7.41268 8.38034 7.46268 8.38888 7.51268 8.38954C7.87645 8.39085 8.24021 8.38954 8.63648 8.38954ZM9.37588 4.76774C9.37588 4.58192 9.37838 4.42499 9.37588 4.26806C9.369 3.88133 9.23712 3.75066 8.83086 3.74607C8.38334 3.74082 7.9352 3.75395 7.48768 3.74279C6.58765 3.71915 6.57014 3.81698 6.59952 4.67187C6.60077 4.69945 6.61702 4.72703 6.6314 4.76774H9.37588ZM6.68827 3.27988C6.102 2.53136 5.57511 1.85835 5.04821 1.18599C4.93946 1.04679 4.82195 1.00674 4.7032 1.17023C4.45069 1.51692 4.20255 1.86688 3.93442 2.24114C4.75632 2.60424 5.54323 2.95487 6.33514 3.29499C6.41014 3.32716 6.51889 3.28973 6.68827 3.28054V3.27988ZM12.0279 2.24049C11.7572 1.86294 11.5097 1.51363 11.2572 1.1676C11.1547 1.02709 11.0391 1.02972 10.9328 1.16564C10.3953 1.84915 9.85965 2.53333 9.26338 3.29433C9.44651 3.29433 9.56214 3.32519 9.64589 3.28973C10.4278 2.95355 11.2047 2.60556 12.0279 2.24114V2.24049Z" fill="#25507A"/>
</g>
<defs>
<clipPath id="clip0_2078_1419">
<rect width="16" height="19" fill="white" transform="translate(0 0.5)"/>
</clipPath>
</defs>
</svg>
