<svg width="29" height="31" viewBox="0 0 29 31" fill="none" xmlns="http://www.w3.org/2000/svg">
<g clip-path="url(#clip0_2078_1642)">
<path d="M10.7814 25.4396V22.8465C9.5311 22.7366 8.29458 22.6255 7.05691 22.518C4.9342 22.3332 2.81149 22.1485 0.687625 21.9661C0.320011 21.9346 -0.0533644 21.8679 0.00540768 21.3839C0.0584178 20.9385 0.421422 20.9549 0.765988 20.9841C3.86478 21.2565 6.96241 21.5266 10.0612 21.7919C10.2859 21.8106 10.5129 21.7943 10.8114 21.7943C10.6789 21.0893 11.0937 20.3504 10.4461 19.7402C10.347 19.6466 10.3551 19.2246 10.4415 19.172C10.9209 18.8832 10.8022 18.4577 10.7768 17.9538C10.2076 17.9538 9.63827 17.9561 9.06899 17.9538C7.20096 17.9444 5.9679 16.7414 5.89069 14.8498C5.87801 14.5388 5.91604 14.222 5.8757 13.9157C5.8515 13.731 5.76277 13.5194 5.6337 13.3919C5.33638 13.0985 5.31679 12.8611 5.61642 12.5513C5.75355 12.4099 5.86994 12.1784 5.87455 11.9855C5.8999 10.9333 5.89069 9.88109 5.88492 8.8289C5.88147 8.14497 6.06585 7.57328 6.67547 7.18163C6.79762 7.1033 6.86792 6.86597 6.87598 6.69762C6.89442 6.33637 6.91977 6.00785 7.38073 6.01486C7.80481 6.02071 7.85206 6.3352 7.85437 6.67073C7.85437 6.74789 7.86819 6.82505 7.87972 6.94196C9.09549 7.198 9.38013 8.05378 9.34095 9.20184C9.28794 10.7579 9.32713 12.3163 9.32713 13.9239H10.7987C10.7987 13.7251 10.7987 13.5006 10.7987 13.2773C10.7987 9.86707 10.7872 6.45678 10.8126 3.0465C10.816 2.59757 10.9566 2.12876 11.126 1.70788C11.2758 1.33376 11.6619 1.0485 11.3334 0.566831C11.2816 0.48967 11.4556 0.142446 11.5973 0.074638C11.7368 0.00682989 12.0883 0.0793144 12.1378 0.188041C12.3337 0.618272 12.6426 0.566831 12.994 0.518898C13.2395 0.486163 13.4999 0.544618 13.7408 0.494347C13.954 0.449921 14.1799 0.348209 14.3412 0.204409C14.6523 -0.0715002 14.9001 -0.080853 15.1675 0.250004C15.2769 0.38562 15.4083 0.536435 15.5616 0.59489C16.5665 0.97368 17.1254 1.68683 17.1968 2.7741C17.221 3.14237 17.1703 3.51999 17.2233 3.88241C17.2602 4.13494 17.3743 4.4015 17.5264 4.60609C17.7419 4.89486 17.7385 5.11699 17.5022 5.37653C17.3835 5.5063 17.2268 5.67465 17.2256 5.82781C17.206 7.50196 17.213 9.17729 17.213 10.8994H18.6546C18.6546 10.0483 18.6696 9.19717 18.6419 8.34723C18.6362 8.18355 18.4806 8.01286 18.3677 7.86673C18.1556 7.59666 18.1533 7.36284 18.3723 7.08342C18.5082 6.91157 18.5716 6.67775 18.6535 6.46614C18.68 6.39833 18.6615 6.31182 18.6569 6.23349C18.5359 4.10337 19.7275 3.8415 21.2118 4.00166C22.0277 4.08935 22.5877 4.6283 22.5992 5.45135C22.6315 7.67265 22.6442 9.89512 22.59 12.1153C22.5635 13.213 21.7084 13.9484 20.5964 13.9718C19.6745 13.9917 18.7514 13.9765 17.8295 13.9765C17.6428 13.9765 17.4561 13.9765 17.2107 13.9765C17.2107 14.8369 17.2107 15.6319 17.2107 16.4269C17.2107 17.928 17.2003 19.428 17.2233 20.9291C17.2268 21.1396 17.357 21.3828 17.4999 21.5476C17.758 21.8457 17.7477 22.0842 17.4838 22.3578C17.3731 22.4712 17.2291 22.622 17.2256 22.76C17.2026 23.6321 17.2141 24.5043 17.2141 25.4407C17.6877 25.4407 18.1061 25.4349 18.5232 25.4419C19.5454 25.4594 20.4062 25.8487 20.9928 26.7034C21.236 27.0576 21.493 27.0973 21.8606 27.0623C23.9625 26.8624 26.0668 26.6765 28.1699 26.4882C28.5387 26.4555 28.9743 26.39 28.9985 26.9278C29.0192 27.4013 28.624 27.4282 28.261 27.4598C26.1763 27.6433 24.0928 27.8362 22.0092 28.0279C21.8986 28.0385 21.7891 28.0665 21.6462 28.0922C21.6462 28.5178 21.705 28.9352 21.6232 29.3233C21.5771 29.5431 21.304 29.7138 21.1323 29.9067C20.9675 29.7267 20.722 29.5712 20.6598 29.3607C20.5745 29.0731 20.6402 28.7423 20.6206 28.4325C20.5537 27.3639 19.8047 26.5771 18.7618 26.4789C18.4944 26.4543 18.2248 26.4508 17.9563 26.4508C13.4412 26.4497 8.92494 26.4508 4.40986 26.4461C4.00652 26.4461 3.44646 26.5584 3.46144 25.9142C3.47527 25.3109 4.01574 25.4442 4.39833 25.4431C6.30094 25.4349 8.20239 25.4396 10.105 25.4396H10.7814ZM16.2219 10.9263C16.2219 10.6118 16.2357 10.3406 16.2184 10.0717C16.1896 9.60168 16.4005 9.06623 15.8347 8.72953C15.7563 8.68276 15.7609 8.25721 15.837 8.21512C16.404 7.90648 16.2058 7.38622 16.2138 6.93729C16.2219 6.51758 16.3636 6.04643 15.8497 5.75532C15.7725 5.71206 15.7944 5.22805 15.9015 5.15908C16.2542 4.93344 16.2288 4.62947 16.2242 4.29862C16.2173 3.83097 16.2346 3.36333 16.2184 2.89569C16.1908 2.07264 15.701 1.48107 14.8978 1.51147C14.0854 1.54187 13.2614 1.24141 12.4397 1.88324C12.0064 2.22228 11.8416 2.49586 11.8002 2.95765C11.7794 3.18913 11.7956 3.42529 11.7956 3.65912C11.7956 7.12668 11.7967 10.5942 11.7944 14.0618C11.7944 14.8708 11.6976 14.962 10.8967 14.9655C10.3205 14.9679 9.74429 14.9702 9.16809 14.9655C8.46974 14.9597 8.36603 14.8556 8.36372 14.1518C8.36027 12.4379 8.36372 10.7228 8.36027 9.00894C8.36027 8.81604 8.35911 8.61612 8.31302 8.43023C8.18971 7.94038 7.77485 7.9322 7.43259 8.02806C7.22055 8.08769 6.92323 8.37412 6.91747 8.56702C6.87368 9.96644 6.89327 11.3682 6.89327 12.736C7.26549 12.9909 7.9431 12.9044 7.79905 13.5486C7.7495 13.7707 7.28162 13.897 6.91516 14.1214C6.91516 14.4055 6.85985 14.8802 6.92669 15.3361C7.06267 16.2597 7.89816 16.9273 8.91226 16.946C10.0831 16.9682 11.2551 16.9495 12.4271 16.9554C12.7866 16.9577 13.2291 16.8981 13.2395 17.4429C13.251 17.9853 12.8293 17.9584 12.4547 17.9561C12.2507 17.9561 12.0468 17.9561 11.7863 17.9561C11.8831 18.7815 11.5259 19.5847 12.2058 20.237C12.2842 20.3119 12.2185 20.7234 12.1148 20.7795C11.7598 20.9724 11.7932 21.267 11.7944 21.5757C11.7967 22.1988 11.7944 22.8219 11.7944 23.4462C11.7944 24.0986 11.7944 24.7498 11.7944 25.401H16.2207C16.2207 24.7241 16.2449 24.0834 16.2069 23.4462C16.1942 23.2346 15.9857 23.0417 15.9407 22.8243C15.89 22.5811 15.8819 22.3122 15.9303 22.0702C15.981 21.8153 16.2046 21.5792 16.2069 21.3337C16.2288 19.0738 16.2196 16.8139 16.2196 14.554V13.9999C16.0583 13.9882 15.9649 14.0104 15.9084 13.973C15.678 13.8186 15.3 13.6713 15.27 13.4761C15.2089 13.0704 15.5685 12.9523 15.9315 12.9523C17.4492 12.9523 18.9669 12.9605 20.4835 12.9477C21.2786 12.9406 21.6324 12.5677 21.6393 11.7563C21.6485 10.8023 21.6543 9.84719 21.6301 8.8932C21.6255 8.72368 21.501 8.52143 21.3731 8.39633C21.0965 8.12627 21.0873 7.88309 21.3166 7.58263C21.4492 7.40844 21.6059 7.20618 21.6266 7.00276C21.6739 6.55967 21.6462 6.10839 21.6393 5.66062C21.6324 5.20935 21.3973 4.98488 20.9536 4.98137C20.7808 4.9802 20.6079 4.98722 20.4351 4.97903C19.9107 4.95682 19.6434 5.18714 19.6641 5.74012C19.6791 6.12943 19.6687 6.51875 19.6664 6.90923C19.6629 7.37219 19.6076 7.83165 20.0283 8.19641C20.1239 8.27942 20.0939 8.72953 19.996 8.78564C19.603 9.01128 19.6699 9.35383 19.6687 9.69053C19.6664 10.2365 19.6664 10.7813 19.6676 11.3273C19.6676 11.7598 19.4601 11.975 19.0326 11.975C17.9758 11.975 16.9191 12.0007 15.8647 11.9539C15.6492 11.9446 15.3057 11.6874 15.2677 11.4945C15.1974 11.1379 15.4982 10.9613 15.8531 10.9485C15.9488 10.945 16.0433 10.938 16.2184 10.9274L16.2219 10.9263Z" fill="#104E80"/>
<path d="M3.90312 5.99517C3.89735 6.84745 3.29004 7.45538 2.44534 7.45421C1.61561 7.45305 0.987558 6.82524 0.982948 5.99166C0.977186 5.13705 1.62829 4.48703 2.47645 4.49755C3.29465 4.50807 3.91003 5.15342 3.90427 5.99517H3.90312ZM2.44188 5.29722C2.21947 5.60001 1.94865 5.81513 1.97977 5.96244C2.02126 6.15768 2.30129 6.30031 2.47876 6.46632C2.62857 6.2968 2.88786 6.13313 2.89592 5.95659C2.90399 5.78122 2.65968 5.593 2.44188 5.29722Z" fill="#104E80"/>
<path d="M22.088 15.0183C22.4683 14.9739 22.9292 14.774 23.1194 14.926C23.5642 15.2814 23.1113 15.6286 22.8808 15.9466C22.9454 15.9466 23.0099 15.9466 23.0744 15.9466C23.0998 16.3032 23.2807 16.7825 23.1194 16.9918C22.7794 17.4349 22.4625 16.9766 22.1721 16.7287C21.8045 16.8573 21.4795 17.5261 21.0762 16.9392C20.9437 16.7463 21.1488 16.3125 21.2825 15.998C21.2514 15.6368 20.5795 15.3106 21.1557 14.9038C21.3505 14.7658 21.7815 14.9727 22.088 15.0195V15.0183Z" fill="#104E80"/>
<path d="M11.4927 28.7086C11.2542 28.373 10.9765 28.1415 11.0145 27.9966C11.071 27.7838 11.3533 27.6318 11.54 27.4553C11.7025 27.6377 11.9768 27.8095 11.9952 28.0071C12.0113 28.1801 11.7428 28.3812 11.4927 28.7097V28.7086Z" fill="#104E80"/>
<path d="M4.57154 27.2472C4.83774 27.564 5.13506 27.7698 5.11317 27.9323C5.08551 28.1369 4.82046 28.4011 4.61303 28.4525C4.48857 28.4841 4.16129 28.1743 4.13824 27.9895C4.11519 27.806 4.35835 27.5885 4.57154 27.2472Z" fill="#104E80"/>
<path d="M9.05437 28.7471C9.28369 29.0745 9.54068 29.2814 9.5257 29.4661C9.51071 29.6567 9.23299 29.8274 9.0705 30.0063C8.88381 29.825 8.5911 29.6684 8.54616 29.4568C8.51389 29.3013 8.80545 29.0756 9.05437 28.7483V28.7471Z" fill="#104E80"/>
<path d="M18.4279 29.7479C18.6457 30.0939 18.8866 30.3067 18.8624 30.4809C18.8359 30.6727 18.5639 30.8281 18.3991 31C18.2217 30.8153 17.9439 30.6516 17.9013 30.4388C17.8713 30.2915 18.164 30.0764 18.4279 29.7467V29.7479Z" fill="#104E80"/>
<path d="M3.10578 23.7504C3.35931 24.0707 3.6232 24.2578 3.62205 24.4437C3.62205 24.6272 3.38235 24.909 3.19336 24.9686C2.87645 25.0691 2.6114 24.8435 2.65058 24.5021C2.67478 24.2882 2.88682 24.0964 3.10578 23.7504Z" fill="#104E80"/>
<path d="M15.4075 28.7331C15.6679 29.0663 15.956 29.2803 15.9295 29.4404C15.895 29.6509 15.6126 29.8192 15.4375 30.0063C15.2738 29.8332 14.9996 29.6731 14.9765 29.4825C14.9546 29.299 15.192 29.0838 15.4075 28.7331Z" fill="#104E80"/>
<path d="M25.8103 30.2155C25.5498 29.8952 25.2525 29.6824 25.279 29.5246C25.3136 29.3118 25.5982 29.1411 25.7745 28.9517C25.9462 29.1247 26.2309 29.2826 26.2551 29.4743C26.2781 29.6579 26.0281 29.8753 25.8103 30.2155Z" fill="#104E80"/>
<path d="M23.8084 20.9387C23.4973 21.1748 23.2921 21.4437 23.1435 21.4157C22.9522 21.3783 22.8058 21.1023 22.6399 20.9293C22.8012 20.7715 22.9533 20.5014 23.125 20.4874C23.2979 20.4734 23.4904 20.7154 23.8084 20.9387Z" fill="#104E80"/>
<path d="M13.1314 21.3245C13.3999 21.4917 13.574 21.5396 13.6396 21.6518C13.854 22.0178 14.0706 22.3942 14.1986 22.7964C14.247 22.9507 14.1064 23.2816 13.9635 23.3529C13.8194 23.4242 13.476 23.34 13.3827 23.2067C13.1407 22.8642 12.9309 22.4714 12.8261 22.0669C12.7777 21.8798 13.0024 21.6191 13.1326 21.3245H13.1314Z" fill="#104E80"/>
<path d="M13.7597 4.0568C13.5822 3.89313 13.3713 3.7844 13.3171 3.62189C13.271 3.48511 13.3517 3.20218 13.467 3.12853C13.8323 2.8912 14.2298 2.69128 14.6378 2.54164C14.768 2.49371 15.0573 2.60009 15.1183 2.71934C15.1979 2.87367 15.199 3.21972 15.0987 3.29104C14.7 3.5763 14.2506 3.78674 13.7597 4.05797V4.0568Z" fill="#104E80"/>
<path d="M14.5894 19.9321C14.5134 19.8234 14.2425 19.5276 14.2829 19.4738C14.5583 19.109 14.889 18.7829 15.2394 18.4871C15.267 18.4637 15.6519 18.7384 15.7188 18.929C15.819 19.2154 15.0677 19.9403 14.5906 19.9321H14.5894Z" fill="#104E80"/>
<path d="M15.2012 16.1348C15.0964 16.2026 14.9269 16.3897 14.7333 16.4189C14.3968 16.4692 13.7158 15.7362 13.8137 15.4193C13.8691 15.2416 14.1122 15.0347 14.2954 15.0055C14.6181 14.9552 15.2162 15.6496 15.2001 16.1348H15.2012Z" fill="#104E80"/>
<path d="M14.0096 9.73864C13.6904 10.0625 13.5026 10.4202 13.2836 10.4401C12.7973 10.4857 12.7696 10.0543 12.7708 9.6685C12.7708 9.30374 12.8814 8.9343 13.2755 9.00678C13.5152 9.05121 13.6973 9.41246 14.0096 9.73981V9.73864Z" fill="#104E80"/>
<path d="M13.5221 4.75592C13.8344 5.05755 14.1813 5.23408 14.2136 5.45855C14.2804 5.91567 13.8874 5.99985 13.5141 6.00102C13.1361 6.00219 12.75 5.90164 12.8157 5.45388C12.848 5.23058 13.2018 5.05638 13.5221 4.75592Z" fill="#104E80"/>
<path d="M13.2952 12.7912C13.5061 13.0975 13.77 13.322 13.7331 13.4646C13.6801 13.6633 13.4024 13.8001 13.2214 13.9638C13.0762 13.7861 12.8216 13.6119 12.817 13.4307C12.8123 13.2577 13.067 13.0776 13.2964 12.7912H13.2952Z" fill="#104E80"/>
</g>
<defs>
<clipPath id="clip0_2078_1642">
<rect width="29" height="31" fill="white"/>
</clipPath>
</defs>
</svg>
