<svg width="16" height="16" viewBox="0 0 16 16" fill="none" xmlns="http://www.w3.org/2000/svg">
<g clip-path="url(#clip0_2078_1417)">
<path d="M15.9956 8.00673C15.9956 9.16553 15.9901 10.3243 16 11.4831C16.0022 11.7135 15.9168 11.8438 15.6974 11.9465C13.2345 13.0986 10.7743 14.2558 8.318 15.4208C8.08763 15.5298 7.90521 15.5252 7.6776 15.4172C5.22128 14.2527 2.76109 13.0955 0.297606 11.9439C0.0755064 11.8391 -0.00054762 11.7057 3.49643e-06 11.4779C0.007168 9.16034 0.00661689 6.84275 3.49643e-06 4.52567C-0.00054762 4.31031 0.063933 4.17591 0.278317 4.07575C2.76661 2.91228 5.25104 1.74363 7.73326 0.57082C7.91403 0.485195 8.06118 0.471184 8.24745 0.559404C10.7374 1.73636 13.2306 2.90865 15.7255 4.07679C15.9251 4.1702 16.0006 4.29526 15.9995 4.5044C15.9912 5.67149 15.9956 6.83911 15.9956 8.00673ZM15.4428 4.81576C15.3695 4.83756 15.3332 4.84378 15.3017 4.85883C13.0152 5.93512 10.7297 7.014 8.43979 8.08405C8.27666 8.16034 8.27501 8.26153 8.27501 8.3949C8.27666 10.4608 8.27611 12.5272 8.27666 14.5931C8.27666 14.6658 8.28548 14.7379 8.29154 14.8303C8.3665 14.8007 8.41775 14.7836 8.4657 14.7613C10.7286 13.698 12.9904 12.6326 15.2554 11.5734C15.4142 11.4992 15.4467 11.4032 15.4461 11.2491C15.4406 9.36428 15.4428 7.48001 15.4428 5.59521C15.4428 5.34508 15.4428 5.09495 15.4428 4.81576ZM0.569857 4.80019C0.562142 4.87648 0.557182 4.90191 0.557182 4.92733C0.557182 7.04565 0.559386 9.16449 0.55112 11.2828C0.550568 11.4587 0.638747 11.5194 0.778179 11.5848C2.6156 12.4468 4.45137 13.3124 6.28824 14.1764C6.75338 14.3954 7.22017 14.6108 7.72334 14.8453V14.5288C7.72334 12.5921 7.70681 10.6549 7.73602 8.7182C7.74263 8.29526 7.628 8.069 7.20585 7.90761C6.64095 7.69122 6.10582 7.40476 5.51833 7.12972C5.51833 7.25323 5.51833 7.33626 5.51833 7.41929C5.51833 8.06797 5.51943 8.71612 5.51778 9.3648C5.51778 9.52567 5.55746 9.70834 5.35079 9.79345C5.12704 9.88582 5.01847 9.71197 4.88895 9.59729C4.80188 9.52048 4.70709 9.44731 4.63764 9.35754C4.27115 8.88686 3.7994 8.6907 3.17223 8.77425C2.84156 8.81836 2.76165 8.70834 2.76109 8.37933C2.75999 7.71353 2.72693 7.04565 2.77267 6.38244C2.80188 5.95743 2.6663 5.73273 2.24415 5.57134C1.6787 5.35546 1.14412 5.06849 0.569857 4.79915V4.80019ZM15.0852 4.37622C14.9837 4.32225 14.9242 4.28748 14.8619 4.25842C14.2309 3.96055 13.5955 3.67098 12.9705 3.36221C12.792 3.27399 12.658 3.29007 12.4883 3.3757C10.7495 4.25011 9.00634 5.11675 7.26537 5.98701C6.80904 6.21483 6.35602 6.44783 5.85561 6.70159C6.52742 7.01815 7.15184 7.30357 7.76633 7.60767C7.94324 7.69537 8.07716 7.68291 8.24801 7.60196C10.0898 6.7291 11.9361 5.8635 13.7807 4.9948C14.2034 4.79552 14.625 4.59469 15.0857 4.3757L15.0852 4.37622ZM0.90218 4.37051C1.57564 4.68758 2.19951 4.97248 2.8118 5.27606C2.98154 5.36013 3.10499 5.34612 3.26592 5.26516C5.17278 4.30564 7.0835 3.35287 8.99256 2.39749C9.28631 2.25063 9.57785 2.10014 9.91403 1.92889C9.30945 1.64451 8.75834 1.37466 8.1962 1.12868C8.08598 1.08042 7.90962 1.08198 7.8005 1.1318C6.86085 1.5594 5.92891 2.00362 4.99532 2.44316C3.65225 3.07523 2.30973 3.70782 0.90218 4.37051ZM3.64508 5.66112C4.13999 5.89464 4.58584 6.09288 5.01791 6.31446C5.18766 6.40165 5.31166 6.384 5.47259 6.30305C7.60761 5.22884 9.74594 4.16086 11.8832 3.09028C11.9493 3.05707 12.011 3.01503 12.1036 2.95951C11.6241 2.73377 11.1788 2.5319 10.7424 2.31343C10.5836 2.23403 10.4618 2.247 10.3092 2.32432C9.09728 2.93719 7.88096 3.54176 6.6663 4.14892C5.6787 4.64295 4.6911 5.13699 3.64508 5.6606V5.66112ZM4.90494 8.91125C4.92533 8.89205 4.94627 8.87284 4.96666 8.85364C4.96666 8.44939 4.92037 8.03942 4.97768 7.64295C5.06366 7.05084 4.85864 6.69329 4.24084 6.51426C3.92726 6.42344 3.64123 6.24752 3.33536 6.10637V8.29786C4.02976 8.11623 4.53238 8.36636 4.90494 8.91073V8.91125Z" fill="#104E80"/>
</g>
<defs>
<clipPath id="clip0_2078_1417">
<rect width="16" height="15" fill="white" transform="translate(0 0.5)"/>
</clipPath>
</defs>
</svg>
