<svg width="18" height="18" viewBox="0 0 64 60" fill="none" xmlns="http://www.w3.org/2000/svg">
  <path
    d="M30.2311 1.35268C30.9815 -0.0696149 33.0185 -0.0696154 33.7689 1.35268L42.2388 17.4061C42.5282 17.9546 43.0556 18.3378 43.6667 18.4436L61.5518 21.5381C63.1363 21.8123 63.7658 23.7496 62.645 24.9028L49.9946 37.9189C49.5624 38.3636 49.3609 38.9837 49.4492 39.5975L52.0329 57.5635C52.2618 59.1552 50.6139 60.3525 49.1708 59.643L32.8825 51.6339C32.326 51.3603 31.674 51.3603 31.1175 51.6339L14.8292 59.643C13.3861 60.3525 11.7382 59.1552 11.9671 57.5635L14.5508 39.5975C14.6391 38.9837 14.4376 38.3636 14.0054 37.9189L1.35499 24.9028C0.234197 23.7496 0.863654 21.8123 2.44822 21.5381L20.3333 18.4436C20.9444 18.3378 21.4718 17.9546 21.7612 17.4061L30.2311 1.35268Z"
    fill="#F1A502"/>
</svg>
